# xmcd
#
# Track frame offsets:
#	150
#	10971
#	22761
#	32461
#	44648
#	55332
#	64970
#	75936
#	86179
#	97516
#	108535
#	121256
#	132449
#	141931
#
# Disc length: 2030 seconds
#
# Revision: 1
# Processed by: cddbd v1.5.2PL0 Copyright (c) Steve Scherf et al.
# Submitted via: audiograbber 1.83.01
#
DISCID=b007ec0e
DTITLE=Little Richard - Rips It Up CD 2
DYEAR=2009
DGENRE=R&B
TTITLE0=Tutti-Frutti
TTITLE1=I'm Just A Lonely Guy
TTITLE2=Long Tall Sally
TTITLE3=Slippin' And Slidin'
TTITLE4=Rip It Up
TTITLE5=Ready Teddy
TTITLE6=She's Got It
TTITLE7=Heeby-Jeebies
TTITLE8=The Girl Can't Help It
TTITLE9=All Around The World
TTITLE10=Maybe I'm Right
TTITLE11=I Love My Baby
TTITLE12=By The Light Of The Silvery Moon
TTITLE13=Send Me Some Lovin'
EXTD=
EXTT0=
EXTT1=
EXTT2=
EXTT3=
EXTT4=
EXTT5=
EXTT6=
EXTT7=
EXTT8=
EXTT9=
EXTT10=
EXTT11=
EXTT12=
EXTT13=
PLAYORDER=
